<svg width="519" height="230" fill="none" xmlns="http://www.w3.org/2000/svg">
  <path fill="#171418" d="M167 0h80v30h-80zM167 100h80v30h-80v-30ZM167 200h80v30h-80zM137 30h30v70h-30zM247 130h30v70h-30zM137 170h30v30h-30zM247 30h30v30h-30z"/>
  <path fill="#000" d="M30 0h80v30H30zM0 30h30v40H0zM30 70h80v30H30zM30 130h80v30H30zM0 160h30v40H0zM30 200h80v30H30z"/>
  <path fill="#B39736" d="M309 200h60v30h-60zM399 200h90v30h-90z"/>
  <path fill-rule="evenodd" clip-rule="evenodd" d="M429 60h-30v70h-30v100h30v-70h30V60Z" fill="#5A4C1C"/>
  <path fill="#0B9B34" d="M309 30h30v30h-30z"/>
  <path fill="#18C749" d="M369 60h30v30h-30z"/>
  <path fill-rule="evenodd" clip-rule="evenodd" d="M399 0h-60v60h30V30h30V0Z" fill="#18C749"/>
  <path fill="#0B9B34" d="M339 90h30v30h-30zM489 30h30v30h-30zM459 110h30v30h-30z"/>
  <path fill-rule="evenodd" clip-rule="evenodd" d="M429 0h60v30h-30v50h30v30h-60V60h-30V30h30V0Z" fill="#18C749"/>
</svg>
