<svg width="519" height="230" viewBox="0 0 519 230" fill="none" xmlns="http://www.w3.org/2000/svg">
<rect x="167" width="80" height="30" fill="#171418"/>
<path d="M167 100H247V130H167V100Z" fill="#171418"/>
<rect x="167" y="200" width="80" height="30" fill="#171418"/>
<rect x="137" y="30" width="30" height="70" fill="#171418"/>
<rect x="247" y="130" width="30" height="70" fill="#171418"/>
<rect x="137" y="170" width="30" height="30" fill="#171418"/>
<rect x="247" y="30" width="30" height="30" fill="#171418"/>
<rect x="30" width="80" height="30" fill="black"/>
<rect y="30" width="30" height="40" fill="black"/>
<rect x="30" y="70" width="80" height="30" fill="black"/>
<rect x="30" y="130" width="80" height="30" fill="black"/>
<rect y="160" width="30" height="40" fill="black"/>
<rect x="30" y="200" width="80" height="30" fill="black"/>
<rect x="339" width="60" height="30" fill="#18C749"/>
<rect x="399" y="30" width="60" height="30" fill="#18C749"/>
<rect x="429" y="60" width="30" height="50" fill="#18C749"/>
<rect x="369" y="130" width="30" height="100" fill="#5A4C1C"/>
<rect x="309" y="200" width="60" height="30" fill="#B39736"/>
<rect x="399" y="200" width="90" height="30" fill="#B39736"/>
<rect x="399" y="60" width="30" height="100" fill="#5A4C1C"/>
<rect x="429" width="60" height="30" fill="#18C749"/>
<rect x="309" y="30" width="30" height="30" fill="#0B9B34"/>
<rect x="369" y="60" width="30" height="30" fill="#18C749"/>
<rect x="339" y="30" width="30" height="30" fill="#18C749"/>
<rect x="339" y="90" width="30" height="30" fill="#0B9B34"/>
<rect x="489" y="30" width="30" height="30" fill="#0B9B34"/>
<rect x="459" y="110" width="30" height="30" fill="#0B9B34"/>
<rect x="459" y="80" width="30" height="30" fill="#18C749"/>
</svg>
