<svg xmlns="http://www.w3.org/2000/svg" width="128" height="128" fill="none"><g clip-path="url(#a)"><path fill="#B39736" d="M11.5 106.5h30v15h-30zM56.5 106.5h45v15h-45z"/><path fill="#5A4C1C" fill-rule="evenodd" d="M71.5 36.5h-15v35h-15v50h15v-35h15v-50Z" clip-rule="evenodd"/><path fill="#0B9B34" d="M11.5 21.5h15v15h-15z"/><path fill="#18C749" d="M41.5 36.5h15v15h-15z"/><path fill="#18C749" fill-rule="evenodd" d="M56.5 6.5h-30v15h30v-15Zm-15 15h-15v15h15v-15Z" clip-rule="evenodd"/><path fill="#0B9B34" d="M26.5 51.5h15v15h-15zM101.5 21.5h15v15h-15zM86.5 61.5h15v15h-15z"/><path fill="#18C749" fill-rule="evenodd" d="M71.5 6.5h30v15h-30v-15Zm15 15h-30v15h15v25h30v-15h-15v-25Z" clip-rule="evenodd"/></g><defs><clipPath id="a"><path fill="#fff" d="M0 0h128v128H0z"/></clipPath></defs></svg>